<svg xmlns="http://www.w3.org/2000/svg" width="1120" height="545" viewBox="0 0 1120 545">
<rect width="100%" height="100%" fill="white"/>
<title>M2 candidate graph stages · existing synthetic gate scenario, seed 0</title>
<desc>Topology diagrams for exhaustive pairs, coarse altitude candidates, and fine-screen edges. Circular node positions do not represent orbital position.</desc>
<style>text{font-family:Arial,Helvetica,sans-serif;fill:#263746}.title{font-size:24px;font-weight:700}.subtitle{font-size:13px}.label{font-size:13px}.small{font-size:11px}.node-label{font-size:10px}</style>
<text x="560.0" y="35.0" text-anchor="middle" class="title">M2 candidate graph stages · existing synthetic gate scenario, seed 0</text>
<text x="180.0" y="65.0" text-anchor="middle" class="label">Before coarse filtering</text>
<text x="180.0" y="88.0" text-anchor="middle" class="small">18 satellites · 153 edges</text>
<line x1="180.0" y1="115.0" x2="229.6" y2="123.7" stroke="#9eabb5" stroke-width="0.7" opacity="0.28"/>
<line x1="180.0" y1="115.0" x2="273.2" y2="148.9" stroke="#9eabb5" stroke-width="0.7" opacity="0.28"/>
<line x1="180.0" y1="115.0" x2="305.6" y2="187.5" stroke="#9eabb5" stroke-width="0.7" opacity="0.28"/>
<line x1="180.0" y1="115.0" x2="322.8" y2="234.8" stroke="#9eabb5" stroke-width="0.7" opacity="0.28"/>
<line x1="180.0" y1="115.0" x2="322.8" y2="285.2" stroke="#9eabb5" stroke-width="0.7" opacity="0.28"/>
<line x1="180.0" y1="115.0" x2="305.6" y2="332.5" stroke="#9eabb5" stroke-width="0.7" opacity="0.28"/>
<line x1="180.0" y1="115.0" x2="273.2" y2="371.1" stroke="#9eabb5" stroke-width="0.7" opacity="0.28"/>
<line x1="180.0" y1="115.0" x2="229.6" y2="396.3" stroke="#9eabb5" stroke-width="0.7" opacity="0.28"/>
<line x1="180.0" y1="115.0" x2="180.0" y2="405.0" stroke="#9eabb5" stroke-width="0.7" opacity="0.28"/>
<line x1="180.0" y1="115.0" x2="130.4" y2="396.3" stroke="#9eabb5" stroke-width="0.7" opacity="0.28"/>
<line x1="180.0" y1="115.0" x2="86.8" y2="371.1" stroke="#9eabb5" stroke-width="0.7" opacity="0.28"/>
<line x1="180.0" y1="115.0" x2="54.4" y2="332.5" stroke="#9eabb5" stroke-width="0.7" opacity="0.28"/>
<line x1="180.0" y1="115.0" x2="37.2" y2="285.2" stroke="#9eabb5" stroke-width="0.7" opacity="0.28"/>
<line x1="180.0" y1="115.0" x2="37.2" y2="234.8" stroke="#9eabb5" stroke-width="0.7" opacity="0.28"/>
<line x1="180.0" y1="115.0" x2="54.4" y2="187.5" stroke="#9eabb5" stroke-width="0.7" opacity="0.28"/>
<line x1="180.0" y1="115.0" x2="86.8" y2="148.9" stroke="#9eabb5" stroke-width="0.7" opacity="0.28"/>
<line x1="180.0" y1="115.0" x2="130.4" y2="123.7" stroke="#9eabb5" stroke-width="0.7" opacity="0.28"/>
<line x1="229.6" y1="123.7" x2="273.2" y2="148.9" stroke="#9eabb5" stroke-width="0.7" opacity="0.28"/>
<line x1="229.6" y1="123.7" x2="305.6" y2="187.5" stroke="#9eabb5" stroke-width="0.7" opacity="0.28"/>
<line x1="229.6" y1="123.7" x2="322.8" y2="234.8" stroke="#9eabb5" stroke-width="0.7" opacity="0.28"/>
<line x1="229.6" y1="123.7" x2="322.8" y2="285.2" stroke="#9eabb5" stroke-width="0.7" opacity="0.28"/>
<line x1="229.6" y1="123.7" x2="305.6" y2="332.5" stroke="#9eabb5" stroke-width="0.7" opacity="0.28"/>
<line x1="229.6" y1="123.7" x2="273.2" y2="371.1" stroke="#9eabb5" stroke-width="0.7" opacity="0.28"/>
<line x1="229.6" y1="123.7" x2="229.6" y2="396.3" stroke="#9eabb5" stroke-width="0.7" opacity="0.28"/>
<line x1="229.6" y1="123.7" x2="180.0" y2="405.0" stroke="#9eabb5" stroke-width="0.7" opacity="0.28"/>
<line x1="229.6" y1="123.7" x2="130.4" y2="396.3" stroke="#9eabb5" stroke-width="0.7" opacity="0.28"/>
<line x1="229.6" y1="123.7" x2="86.8" y2="371.1" stroke="#9eabb5" stroke-width="0.7" opacity="0.28"/>
<line x1="229.6" y1="123.7" x2="54.4" y2="332.5" stroke="#9eabb5" stroke-width="0.7" opacity="0.28"/>
<line x1="229.6" y1="123.7" x2="37.2" y2="285.2" stroke="#9eabb5" stroke-width="0.7" opacity="0.28"/>
<line x1="229.6" y1="123.7" x2="37.2" y2="234.8" stroke="#9eabb5" stroke-width="0.7" opacity="0.28"/>
<line x1="229.6" y1="123.7" x2="54.4" y2="187.5" stroke="#9eabb5" stroke-width="0.7" opacity="0.28"/>
<line x1="229.6" y1="123.7" x2="86.8" y2="148.9" stroke="#9eabb5" stroke-width="0.7" opacity="0.28"/>
<line x1="229.6" y1="123.7" x2="130.4" y2="123.7" stroke="#9eabb5" stroke-width="0.7" opacity="0.28"/>
<line x1="273.2" y1="148.9" x2="305.6" y2="187.5" stroke="#9eabb5" stroke-width="0.7" opacity="0.28"/>
<line x1="273.2" y1="148.9" x2="322.8" y2="234.8" stroke="#9eabb5" stroke-width="0.7" opacity="0.28"/>
<line x1="273.2" y1="148.9" x2="322.8" y2="285.2" stroke="#9eabb5" stroke-width="0.7" opacity="0.28"/>
<line x1="273.2" y1="148.9" x2="305.6" y2="332.5" stroke="#9eabb5" stroke-width="0.7" opacity="0.28"/>
<line x1="273.2" y1="148.9" x2="273.2" y2="371.1" stroke="#9eabb5" stroke-width="0.7" opacity="0.28"/>
<line x1="273.2" y1="148.9" x2="229.6" y2="396.3" stroke="#9eabb5" stroke-width="0.7" opacity="0.28"/>
<line x1="273.2" y1="148.9" x2="180.0" y2="405.0" stroke="#9eabb5" stroke-width="0.7" opacity="0.28"/>
<line x1="273.2" y1="148.9" x2="130.4" y2="396.3" stroke="#9eabb5" stroke-width="0.7" opacity="0.28"/>
<line x1="273.2" y1="148.9" x2="86.8" y2="371.1" stroke="#9eabb5" stroke-width="0.7" opacity="0.28"/>
<line x1="273.2" y1="148.9" x2="54.4" y2="332.5" stroke="#9eabb5" stroke-width="0.7" opacity="0.28"/>
<line x1="273.2" y1="148.9" x2="37.2" y2="285.2" stroke="#9eabb5" stroke-width="0.7" opacity="0.28"/>
<line x1="273.2" y1="148.9" x2="37.2" y2="234.8" stroke="#9eabb5" stroke-width="0.7" opacity="0.28"/>
<line x1="273.2" y1="148.9" x2="54.4" y2="187.5" stroke="#9eabb5" stroke-width="0.7" opacity="0.28"/>
<line x1="273.2" y1="148.9" x2="86.8" y2="148.9" stroke="#9eabb5" stroke-width="0.7" opacity="0.28"/>
<line x1="273.2" y1="148.9" x2="130.4" y2="123.7" stroke="#9eabb5" stroke-width="0.7" opacity="0.28"/>
<line x1="305.6" y1="187.5" x2="322.8" y2="234.8" stroke="#9eabb5" stroke-width="0.7" opacity="0.28"/>
<line x1="305.6" y1="187.5" x2="322.8" y2="285.2" stroke="#9eabb5" stroke-width="0.7" opacity="0.28"/>
<line x1="305.6" y1="187.5" x2="305.6" y2="332.5" stroke="#9eabb5" stroke-width="0.7" opacity="0.28"/>
<line x1="305.6" y1="187.5" x2="273.2" y2="371.1" stroke="#9eabb5" stroke-width="0.7" opacity="0.28"/>
<line x1="305.6" y1="187.5" x2="229.6" y2="396.3" stroke="#9eabb5" stroke-width="0.7" opacity="0.28"/>
<line x1="305.6" y1="187.5" x2="180.0" y2="405.0" stroke="#9eabb5" stroke-width="0.7" opacity="0.28"/>
<line x1="305.6" y1="187.5" x2="130.4" y2="396.3" stroke="#9eabb5" stroke-width="0.7" opacity="0.28"/>
<line x1="305.6" y1="187.5" x2="86.8" y2="371.1" stroke="#9eabb5" stroke-width="0.7" opacity="0.28"/>
<line x1="305.6" y1="187.5" x2="54.4" y2="332.5" stroke="#9eabb5" stroke-width="0.7" opacity="0.28"/>
<line x1="305.6" y1="187.5" x2="37.2" y2="285.2" stroke="#9eabb5" stroke-width="0.7" opacity="0.28"/>
<line x1="305.6" y1="187.5" x2="37.2" y2="234.8" stroke="#9eabb5" stroke-width="0.7" opacity="0.28"/>
<line x1="305.6" y1="187.5" x2="54.4" y2="187.5" stroke="#9eabb5" stroke-width="0.7" opacity="0.28"/>
<line x1="305.6" y1="187.5" x2="86.8" y2="148.9" stroke="#9eabb5" stroke-width="0.7" opacity="0.28"/>
<line x1="305.6" y1="187.5" x2="130.4" y2="123.7" stroke="#9eabb5" stroke-width="0.7" opacity="0.28"/>
<line x1="322.8" y1="234.8" x2="322.8" y2="285.2" stroke="#9eabb5" stroke-width="0.7" opacity="0.28"/>
<line x1="322.8" y1="234.8" x2="305.6" y2="332.5" stroke="#9eabb5" stroke-width="0.7" opacity="0.28"/>
<line x1="322.8" y1="234.8" x2="273.2" y2="371.1" stroke="#9eabb5" stroke-width="0.7" opacity="0.28"/>
<line x1="322.8" y1="234.8" x2="229.6" y2="396.3" stroke="#9eabb5" stroke-width="0.7" opacity="0.28"/>
<line x1="322.8" y1="234.8" x2="180.0" y2="405.0" stroke="#9eabb5" stroke-width="0.7" opacity="0.28"/>
<line x1="322.8" y1="234.8" x2="130.4" y2="396.3" stroke="#9eabb5" stroke-width="0.7" opacity="0.28"/>
<line x1="322.8" y1="234.8" x2="86.8" y2="371.1" stroke="#9eabb5" stroke-width="0.7" opacity="0.28"/>
<line x1="322.8" y1="234.8" x2="54.4" y2="332.5" stroke="#9eabb5" stroke-width="0.7" opacity="0.28"/>
<line x1="322.8" y1="234.8" x2="37.2" y2="285.2" stroke="#9eabb5" stroke-width="0.7" opacity="0.28"/>
<line x1="322.8" y1="234.8" x2="37.2" y2="234.8" stroke="#9eabb5" stroke-width="0.7" opacity="0.28"/>
<line x1="322.8" y1="234.8" x2="54.4" y2="187.5" stroke="#9eabb5" stroke-width="0.7" opacity="0.28"/>
<line x1="322.8" y1="234.8" x2="86.8" y2="148.9" stroke="#9eabb5" stroke-width="0.7" opacity="0.28"/>
<line x1="322.8" y1="234.8" x2="130.4" y2="123.7" stroke="#9eabb5" stroke-width="0.7" opacity="0.28"/>
<line x1="322.8" y1="285.2" x2="305.6" y2="332.5" stroke="#9eabb5" stroke-width="0.7" opacity="0.28"/>
<line x1="322.8" y1="285.2" x2="273.2" y2="371.1" stroke="#9eabb5" stroke-width="0.7" opacity="0.28"/>
<line x1="322.8" y1="285.2" x2="229.6" y2="396.3" stroke="#9eabb5" stroke-width="0.7" opacity="0.28"/>
<line x1="322.8" y1="285.2" x2="180.0" y2="405.0" stroke="#9eabb5" stroke-width="0.7" opacity="0.28"/>
<line x1="322.8" y1="285.2" x2="130.4" y2="396.3" stroke="#9eabb5" stroke-width="0.7" opacity="0.28"/>
<line x1="322.8" y1="285.2" x2="86.8" y2="371.1" stroke="#9eabb5" stroke-width="0.7" opacity="0.28"/>
<line x1="322.8" y1="285.2" x2="54.4" y2="332.5" stroke="#9eabb5" stroke-width="0.7" opacity="0.28"/>
<line x1="322.8" y1="285.2" x2="37.2" y2="285.2" stroke="#9eabb5" stroke-width="0.7" opacity="0.28"/>
<line x1="322.8" y1="285.2" x2="37.2" y2="234.8" stroke="#9eabb5" stroke-width="0.7" opacity="0.28"/>
<line x1="322.8" y1="285.2" x2="54.4" y2="187.5" stroke="#9eabb5" stroke-width="0.7" opacity="0.28"/>
<line x1="322.8" y1="285.2" x2="86.8" y2="148.9" stroke="#9eabb5" stroke-width="0.7" opacity="0.28"/>
<line x1="322.8" y1="285.2" x2="130.4" y2="123.7" stroke="#9eabb5" stroke-width="0.7" opacity="0.28"/>
<line x1="305.6" y1="332.5" x2="273.2" y2="371.1" stroke="#9eabb5" stroke-width="0.7" opacity="0.28"/>
<line x1="305.6" y1="332.5" x2="229.6" y2="396.3" stroke="#9eabb5" stroke-width="0.7" opacity="0.28"/>
<line x1="305.6" y1="332.5" x2="180.0" y2="405.0" stroke="#9eabb5" stroke-width="0.7" opacity="0.28"/>
<line x1="305.6" y1="332.5" x2="130.4" y2="396.3" stroke="#9eabb5" stroke-width="0.7" opacity="0.28"/>
<line x1="305.6" y1="332.5" x2="86.8" y2="371.1" stroke="#9eabb5" stroke-width="0.7" opacity="0.28"/>
<line x1="305.6" y1="332.5" x2="54.4" y2="332.5" stroke="#9eabb5" stroke-width="0.7" opacity="0.28"/>
<line x1="305.6" y1="332.5" x2="37.2" y2="285.2" stroke="#9eabb5" stroke-width="0.7" opacity="0.28"/>
<line x1="305.6" y1="332.5" x2="37.2" y2="234.8" stroke="#9eabb5" stroke-width="0.7" opacity="0.28"/>
<line x1="305.6" y1="332.5" x2="54.4" y2="187.5" stroke="#9eabb5" stroke-width="0.7" opacity="0.28"/>
<line x1="305.6" y1="332.5" x2="86.8" y2="148.9" stroke="#9eabb5" stroke-width="0.7" opacity="0.28"/>
<line x1="305.6" y1="332.5" x2="130.4" y2="123.7" stroke="#9eabb5" stroke-width="0.7" opacity="0.28"/>
<line x1="273.2" y1="371.1" x2="229.6" y2="396.3" stroke="#9eabb5" stroke-width="0.7" opacity="0.28"/>
<line x1="273.2" y1="371.1" x2="180.0" y2="405.0" stroke="#9eabb5" stroke-width="0.7" opacity="0.28"/>
<line x1="273.2" y1="371.1" x2="130.4" y2="396.3" stroke="#9eabb5" stroke-width="0.7" opacity="0.28"/>
<line x1="273.2" y1="371.1" x2="86.8" y2="371.1" stroke="#9eabb5" stroke-width="0.7" opacity="0.28"/>
<line x1="273.2" y1="371.1" x2="54.4" y2="332.5" stroke="#9eabb5" stroke-width="0.7" opacity="0.28"/>
<line x1="273.2" y1="371.1" x2="37.2" y2="285.2" stroke="#9eabb5" stroke-width="0.7" opacity="0.28"/>
<line x1="273.2" y1="371.1" x2="37.2" y2="234.8" stroke="#9eabb5" stroke-width="0.7" opacity="0.28"/>
<line x1="273.2" y1="371.1" x2="54.4" y2="187.5" stroke="#9eabb5" stroke-width="0.7" opacity="0.28"/>
<line x1="273.2" y1="371.1" x2="86.8" y2="148.9" stroke="#9eabb5" stroke-width="0.7" opacity="0.28"/>
<line x1="273.2" y1="371.1" x2="130.4" y2="123.7" stroke="#9eabb5" stroke-width="0.7" opacity="0.28"/>
<line x1="229.6" y1="396.3" x2="180.0" y2="405.0" stroke="#9eabb5" stroke-width="0.7" opacity="0.28"/>
<line x1="229.6" y1="396.3" x2="130.4" y2="396.3" stroke="#9eabb5" stroke-width="0.7" opacity="0.28"/>
<line x1="229.6" y1="396.3" x2="86.8" y2="371.1" stroke="#9eabb5" stroke-width="0.7" opacity="0.28"/>
<line x1="229.6" y1="396.3" x2="54.4" y2="332.5" stroke="#9eabb5" stroke-width="0.7" opacity="0.28"/>
<line x1="229.6" y1="396.3" x2="37.2" y2="285.2" stroke="#9eabb5" stroke-width="0.7" opacity="0.28"/>
<line x1="229.6" y1="396.3" x2="37.2" y2="234.8" stroke="#9eabb5" stroke-width="0.7" opacity="0.28"/>
<line x1="229.6" y1="396.3" x2="54.4" y2="187.5" stroke="#9eabb5" stroke-width="0.7" opacity="0.28"/>
<line x1="229.6" y1="396.3" x2="86.8" y2="148.9" stroke="#9eabb5" stroke-width="0.7" opacity="0.28"/>
<line x1="229.6" y1="396.3" x2="130.4" y2="123.7" stroke="#9eabb5" stroke-width="0.7" opacity="0.28"/>
<line x1="180.0" y1="405.0" x2="130.4" y2="396.3" stroke="#9eabb5" stroke-width="0.7" opacity="0.28"/>
<line x1="180.0" y1="405.0" x2="86.8" y2="371.1" stroke="#9eabb5" stroke-width="0.7" opacity="0.28"/>
<line x1="180.0" y1="405.0" x2="54.4" y2="332.5" stroke="#9eabb5" stroke-width="0.7" opacity="0.28"/>
<line x1="180.0" y1="405.0" x2="37.2" y2="285.2" stroke="#9eabb5" stroke-width="0.7" opacity="0.28"/>
<line x1="180.0" y1="405.0" x2="37.2" y2="234.8" stroke="#9eabb5" stroke-width="0.7" opacity="0.28"/>
<line x1="180.0" y1="405.0" x2="54.4" y2="187.5" stroke="#9eabb5" stroke-width="0.7" opacity="0.28"/>
<line x1="180.0" y1="405.0" x2="86.8" y2="148.9" stroke="#9eabb5" stroke-width="0.7" opacity="0.28"/>
<line x1="180.0" y1="405.0" x2="130.4" y2="123.7" stroke="#9eabb5" stroke-width="0.7" opacity="0.28"/>
<line x1="130.4" y1="396.3" x2="86.8" y2="371.1" stroke="#9eabb5" stroke-width="0.7" opacity="0.28"/>
<line x1="130.4" y1="396.3" x2="54.4" y2="332.5" stroke="#9eabb5" stroke-width="0.7" opacity="0.28"/>
<line x1="130.4" y1="396.3" x2="37.2" y2="285.2" stroke="#9eabb5" stroke-width="0.7" opacity="0.28"/>
<line x1="130.4" y1="396.3" x2="37.2" y2="234.8" stroke="#9eabb5" stroke-width="0.7" opacity="0.28"/>
<line x1="130.4" y1="396.3" x2="54.4" y2="187.5" stroke="#9eabb5" stroke-width="0.7" opacity="0.28"/>
<line x1="130.4" y1="396.3" x2="86.8" y2="148.9" stroke="#9eabb5" stroke-width="0.7" opacity="0.28"/>
<line x1="130.4" y1="396.3" x2="130.4" y2="123.7" stroke="#9eabb5" stroke-width="0.7" opacity="0.28"/>
<line x1="86.8" y1="371.1" x2="54.4" y2="332.5" stroke="#9eabb5" stroke-width="0.7" opacity="0.28"/>
<line x1="86.8" y1="371.1" x2="37.2" y2="285.2" stroke="#9eabb5" stroke-width="0.7" opacity="0.28"/>
<line x1="86.8" y1="371.1" x2="37.2" y2="234.8" stroke="#9eabb5" stroke-width="0.7" opacity="0.28"/>
<line x1="86.8" y1="371.1" x2="54.4" y2="187.5" stroke="#9eabb5" stroke-width="0.7" opacity="0.28"/>
<line x1="86.8" y1="371.1" x2="86.8" y2="148.9" stroke="#9eabb5" stroke-width="0.7" opacity="0.28"/>
<line x1="86.8" y1="371.1" x2="130.4" y2="123.7" stroke="#9eabb5" stroke-width="0.7" opacity="0.28"/>
<line x1="54.4" y1="332.5" x2="37.2" y2="285.2" stroke="#9eabb5" stroke-width="0.7" opacity="0.28"/>
<line x1="54.4" y1="332.5" x2="37.2" y2="234.8" stroke="#9eabb5" stroke-width="0.7" opacity="0.28"/>
<line x1="54.4" y1="332.5" x2="54.4" y2="187.5" stroke="#9eabb5" stroke-width="0.7" opacity="0.28"/>
<line x1="54.4" y1="332.5" x2="86.8" y2="148.9" stroke="#9eabb5" stroke-width="0.7" opacity="0.28"/>
<line x1="54.4" y1="332.5" x2="130.4" y2="123.7" stroke="#9eabb5" stroke-width="0.7" opacity="0.28"/>
<line x1="37.2" y1="285.2" x2="37.2" y2="234.8" stroke="#9eabb5" stroke-width="0.7" opacity="0.28"/>
<line x1="37.2" y1="285.2" x2="54.4" y2="187.5" stroke="#9eabb5" stroke-width="0.7" opacity="0.28"/>
<line x1="37.2" y1="285.2" x2="86.8" y2="148.9" stroke="#9eabb5" stroke-width="0.7" opacity="0.28"/>
<line x1="37.2" y1="285.2" x2="130.4" y2="123.7" stroke="#9eabb5" stroke-width="0.7" opacity="0.28"/>
<line x1="37.2" y1="234.8" x2="54.4" y2="187.5" stroke="#9eabb5" stroke-width="0.7" opacity="0.28"/>
<line x1="37.2" y1="234.8" x2="86.8" y2="148.9" stroke="#9eabb5" stroke-width="0.7" opacity="0.28"/>
<line x1="37.2" y1="234.8" x2="130.4" y2="123.7" stroke="#9eabb5" stroke-width="0.7" opacity="0.28"/>
<line x1="54.4" y1="187.5" x2="86.8" y2="148.9" stroke="#9eabb5" stroke-width="0.7" opacity="0.28"/>
<line x1="54.4" y1="187.5" x2="130.4" y2="123.7" stroke="#9eabb5" stroke-width="0.7" opacity="0.28"/>
<line x1="86.8" y1="148.9" x2="130.4" y2="123.7" stroke="#9eabb5" stroke-width="0.7" opacity="0.28"/>
<circle cx="180.0" cy="115.0" r="9" fill="#2f6f9f" stroke="white" stroke-width="1.4"/>
<text x="180.0" y="102.0" text-anchor="middle" class="node-label">0</text>
<circle cx="229.6" cy="123.7" r="9" fill="#2f6f9f" stroke="white" stroke-width="1.4"/>
<text x="235.1" y="111.7" text-anchor="middle" class="node-label">1</text>
<circle cx="273.2" cy="148.9" r="9" fill="#2f6f9f" stroke="white" stroke-width="1.4"/>
<text x="283.5" y="139.7" text-anchor="middle" class="node-label">2</text>
<circle cx="305.6" cy="187.5" r="9" fill="#2f6f9f" stroke="white" stroke-width="1.4"/>
<text x="319.4" y="182.5" text-anchor="middle" class="node-label">3</text>
<circle cx="322.8" cy="234.8" r="9" fill="#2f6f9f" stroke="white" stroke-width="1.4"/>
<text x="338.6" y="235.0" text-anchor="middle" class="node-label">4</text>
<circle cx="322.8" cy="285.2" r="9" fill="#2f6f9f" stroke="white" stroke-width="1.4"/>
<text x="338.6" y="291.0" text-anchor="middle" class="node-label">5</text>
<circle cx="305.6" cy="332.5" r="9" fill="#2f6f9f" stroke="white" stroke-width="1.4"/>
<text x="319.4" y="343.5" text-anchor="middle" class="node-label">6</text>
<circle cx="273.2" cy="371.1" r="9" fill="#2f6f9f" stroke="white" stroke-width="1.4"/>
<text x="283.5" y="386.3" text-anchor="middle" class="node-label">7</text>
<circle cx="229.6" cy="396.3" r="9" fill="#2f6f9f" stroke="white" stroke-width="1.4"/>
<text x="235.1" y="414.3" text-anchor="middle" class="node-label">8</text>
<circle cx="180.0" cy="405.0" r="9" fill="#2f6f9f" stroke="white" stroke-width="1.4"/>
<text x="180.0" y="424.0" text-anchor="middle" class="node-label">9</text>
<circle cx="130.4" cy="396.3" r="9" fill="#2f6f9f" stroke="white" stroke-width="1.4"/>
<text x="124.9" y="414.3" text-anchor="middle" class="node-label">10</text>
<circle cx="86.8" cy="371.1" r="9" fill="#2f6f9f" stroke="white" stroke-width="1.4"/>
<text x="76.5" y="386.3" text-anchor="middle" class="node-label">11</text>
<circle cx="54.4" cy="332.5" r="9" fill="#2f6f9f" stroke="white" stroke-width="1.4"/>
<text x="40.6" y="343.5" text-anchor="middle" class="node-label">12</text>
<circle cx="37.2" cy="285.2" r="9" fill="#2f6f9f" stroke="white" stroke-width="1.4"/>
<text x="21.4" y="291.0" text-anchor="middle" class="node-label">13</text>
<circle cx="37.2" cy="234.8" r="9" fill="#2f6f9f" stroke="white" stroke-width="1.4"/>
<text x="21.4" y="235.0" text-anchor="middle" class="node-label">14</text>
<circle cx="54.4" cy="187.5" r="9" fill="#2f6f9f" stroke="white" stroke-width="1.4"/>
<text x="40.6" y="182.5" text-anchor="middle" class="node-label">15</text>
<circle cx="86.8" cy="148.9" r="9" fill="#2f6f9f" stroke="white" stroke-width="1.4"/>
<text x="76.5" y="139.7" text-anchor="middle" class="node-label">16</text>
<circle cx="130.4" cy="123.7" r="9" fill="#2f6f9f" stroke="white" stroke-width="1.4"/>
<text x="124.9" y="111.7" text-anchor="middle" class="node-label">17</text>
<circle cx="134" cy="466" r="6" fill="#2f6f9f"/>
<text x="146.0" y="470.0" text-anchor="start" class="small">Satellite</text>
<line x1="202" y1="466" x2="229" y2="466" stroke="#9eabb5" stroke-width="2"/>
<text x="236.0" y="470.0" text-anchor="start" class="small">Candidate connection</text>
<text x="555.0" y="65.0" text-anchor="middle" class="label">After altitude-regime filtering</text>
<text x="555.0" y="88.0" text-anchor="middle" class="small">18 satellites · 153 edges</text>
<line x1="505.4" y1="396.3" x2="412.2" y2="234.8" stroke="#e09f3e" stroke-width="0.7" opacity="0.28"/>
<line x1="505.4" y1="396.3" x2="429.4" y2="332.5" stroke="#e09f3e" stroke-width="0.7" opacity="0.28"/>
<line x1="412.2" y1="234.8" x2="429.4" y2="332.5" stroke="#e09f3e" stroke-width="0.7" opacity="0.28"/>
<line x1="505.4" y1="396.3" x2="412.2" y2="285.2" stroke="#e09f3e" stroke-width="0.7" opacity="0.28"/>
<line x1="412.2" y1="234.8" x2="412.2" y2="285.2" stroke="#e09f3e" stroke-width="0.7" opacity="0.28"/>
<line x1="429.4" y1="332.5" x2="412.2" y2="285.2" stroke="#e09f3e" stroke-width="0.7" opacity="0.28"/>
<line x1="505.4" y1="396.3" x2="604.6" y2="396.3" stroke="#e09f3e" stroke-width="0.7" opacity="0.28"/>
<line x1="412.2" y1="234.8" x2="604.6" y2="396.3" stroke="#e09f3e" stroke-width="0.7" opacity="0.28"/>
<line x1="429.4" y1="332.5" x2="604.6" y2="396.3" stroke="#e09f3e" stroke-width="0.7" opacity="0.28"/>
<line x1="412.2" y1="285.2" x2="604.6" y2="396.3" stroke="#e09f3e" stroke-width="0.7" opacity="0.28"/>
<line x1="505.4" y1="396.3" x2="680.6" y2="187.5" stroke="#e09f3e" stroke-width="0.7" opacity="0.28"/>
<line x1="412.2" y1="234.8" x2="680.6" y2="187.5" stroke="#e09f3e" stroke-width="0.7" opacity="0.28"/>
<line x1="429.4" y1="332.5" x2="680.6" y2="187.5" stroke="#e09f3e" stroke-width="0.7" opacity="0.28"/>
<line x1="412.2" y1="285.2" x2="680.6" y2="187.5" stroke="#e09f3e" stroke-width="0.7" opacity="0.28"/>
<line x1="604.6" y1="396.3" x2="680.6" y2="187.5" stroke="#e09f3e" stroke-width="0.7" opacity="0.28"/>
<line x1="505.4" y1="396.3" x2="461.8" y2="371.1" stroke="#e09f3e" stroke-width="0.7" opacity="0.28"/>
<line x1="412.2" y1="234.8" x2="461.8" y2="371.1" stroke="#e09f3e" stroke-width="0.7" opacity="0.28"/>
<line x1="429.4" y1="332.5" x2="461.8" y2="371.1" stroke="#e09f3e" stroke-width="0.7" opacity="0.28"/>
<line x1="412.2" y1="285.2" x2="461.8" y2="371.1" stroke="#e09f3e" stroke-width="0.7" opacity="0.28"/>
<line x1="604.6" y1="396.3" x2="461.8" y2="371.1" stroke="#e09f3e" stroke-width="0.7" opacity="0.28"/>
<line x1="680.6" y1="187.5" x2="461.8" y2="371.1" stroke="#e09f3e" stroke-width="0.7" opacity="0.28"/>
<line x1="505.4" y1="396.3" x2="697.8" y2="285.2" stroke="#e09f3e" stroke-width="0.7" opacity="0.28"/>
<line x1="412.2" y1="234.8" x2="697.8" y2="285.2" stroke="#e09f3e" stroke-width="0.7" opacity="0.28"/>
<line x1="429.4" y1="332.5" x2="697.8" y2="285.2" stroke="#e09f3e" stroke-width="0.7" opacity="0.28"/>
<line x1="412.2" y1="285.2" x2="697.8" y2="285.2" stroke="#e09f3e" stroke-width="0.7" opacity="0.28"/>
<line x1="604.6" y1="396.3" x2="697.8" y2="285.2" stroke="#e09f3e" stroke-width="0.7" opacity="0.28"/>
<line x1="680.6" y1="187.5" x2="697.8" y2="285.2" stroke="#e09f3e" stroke-width="0.7" opacity="0.28"/>
<line x1="461.8" y1="371.1" x2="697.8" y2="285.2" stroke="#e09f3e" stroke-width="0.7" opacity="0.28"/>
<line x1="505.4" y1="396.3" x2="648.2" y2="148.9" stroke="#e09f3e" stroke-width="0.7" opacity="0.28"/>
<line x1="412.2" y1="234.8" x2="648.2" y2="148.9" stroke="#e09f3e" stroke-width="0.7" opacity="0.28"/>
<line x1="429.4" y1="332.5" x2="648.2" y2="148.9" stroke="#e09f3e" stroke-width="0.7" opacity="0.28"/>
<line x1="412.2" y1="285.2" x2="648.2" y2="148.9" stroke="#e09f3e" stroke-width="0.7" opacity="0.28"/>
<line x1="604.6" y1="396.3" x2="648.2" y2="148.9" stroke="#e09f3e" stroke-width="0.7" opacity="0.28"/>
<line x1="680.6" y1="187.5" x2="648.2" y2="148.9" stroke="#e09f3e" stroke-width="0.7" opacity="0.28"/>
<line x1="461.8" y1="371.1" x2="648.2" y2="148.9" stroke="#e09f3e" stroke-width="0.7" opacity="0.28"/>
<line x1="697.8" y1="285.2" x2="648.2" y2="148.9" stroke="#e09f3e" stroke-width="0.7" opacity="0.28"/>
<line x1="505.4" y1="396.3" x2="604.6" y2="123.7" stroke="#e09f3e" stroke-width="0.7" opacity="0.28"/>
<line x1="412.2" y1="234.8" x2="604.6" y2="123.7" stroke="#e09f3e" stroke-width="0.7" opacity="0.28"/>
<line x1="429.4" y1="332.5" x2="604.6" y2="123.7" stroke="#e09f3e" stroke-width="0.7" opacity="0.28"/>
<line x1="412.2" y1="285.2" x2="604.6" y2="123.7" stroke="#e09f3e" stroke-width="0.7" opacity="0.28"/>
<line x1="604.6" y1="396.3" x2="604.6" y2="123.7" stroke="#e09f3e" stroke-width="0.7" opacity="0.28"/>
<line x1="680.6" y1="187.5" x2="604.6" y2="123.7" stroke="#e09f3e" stroke-width="0.7" opacity="0.28"/>
<line x1="461.8" y1="371.1" x2="604.6" y2="123.7" stroke="#e09f3e" stroke-width="0.7" opacity="0.28"/>
<line x1="697.8" y1="285.2" x2="604.6" y2="123.7" stroke="#e09f3e" stroke-width="0.7" opacity="0.28"/>
<line x1="648.2" y1="148.9" x2="604.6" y2="123.7" stroke="#e09f3e" stroke-width="0.7" opacity="0.28"/>
<line x1="505.4" y1="396.3" x2="680.6" y2="332.5" stroke="#e09f3e" stroke-width="0.7" opacity="0.28"/>
<line x1="412.2" y1="234.8" x2="680.6" y2="332.5" stroke="#e09f3e" stroke-width="0.7" opacity="0.28"/>
<line x1="429.4" y1="332.5" x2="680.6" y2="332.5" stroke="#e09f3e" stroke-width="0.7" opacity="0.28"/>
<line x1="412.2" y1="285.2" x2="680.6" y2="332.5" stroke="#e09f3e" stroke-width="0.7" opacity="0.28"/>
<line x1="604.6" y1="396.3" x2="680.6" y2="332.5" stroke="#e09f3e" stroke-width="0.7" opacity="0.28"/>
<line x1="680.6" y1="187.5" x2="680.6" y2="332.5" stroke="#e09f3e" stroke-width="0.7" opacity="0.28"/>
<line x1="461.8" y1="371.1" x2="680.6" y2="332.5" stroke="#e09f3e" stroke-width="0.7" opacity="0.28"/>
<line x1="697.8" y1="285.2" x2="680.6" y2="332.5" stroke="#e09f3e" stroke-width="0.7" opacity="0.28"/>
<line x1="648.2" y1="148.9" x2="680.6" y2="332.5" stroke="#e09f3e" stroke-width="0.7" opacity="0.28"/>
<line x1="604.6" y1="123.7" x2="680.6" y2="332.5" stroke="#e09f3e" stroke-width="0.7" opacity="0.28"/>
<line x1="505.4" y1="396.3" x2="461.8" y2="148.9" stroke="#e09f3e" stroke-width="0.7" opacity="0.28"/>
<line x1="412.2" y1="234.8" x2="461.8" y2="148.9" stroke="#e09f3e" stroke-width="0.7" opacity="0.28"/>
<line x1="429.4" y1="332.5" x2="461.8" y2="148.9" stroke="#e09f3e" stroke-width="0.7" opacity="0.28"/>
<line x1="412.2" y1="285.2" x2="461.8" y2="148.9" stroke="#e09f3e" stroke-width="0.7" opacity="0.28"/>
<line x1="604.6" y1="396.3" x2="461.8" y2="148.9" stroke="#e09f3e" stroke-width="0.7" opacity="0.28"/>
<line x1="680.6" y1="187.5" x2="461.8" y2="148.9" stroke="#e09f3e" stroke-width="0.7" opacity="0.28"/>
<line x1="461.8" y1="371.1" x2="461.8" y2="148.9" stroke="#e09f3e" stroke-width="0.7" opacity="0.28"/>
<line x1="697.8" y1="285.2" x2="461.8" y2="148.9" stroke="#e09f3e" stroke-width="0.7" opacity="0.28"/>
<line x1="648.2" y1="148.9" x2="461.8" y2="148.9" stroke="#e09f3e" stroke-width="0.7" opacity="0.28"/>
<line x1="604.6" y1="123.7" x2="461.8" y2="148.9" stroke="#e09f3e" stroke-width="0.7" opacity="0.28"/>
<line x1="680.6" y1="332.5" x2="461.8" y2="148.9" stroke="#e09f3e" stroke-width="0.7" opacity="0.28"/>
<line x1="505.4" y1="396.3" x2="505.4" y2="123.7" stroke="#e09f3e" stroke-width="0.7" opacity="0.28"/>
<line x1="412.2" y1="234.8" x2="505.4" y2="123.7" stroke="#e09f3e" stroke-width="0.7" opacity="0.28"/>
<line x1="429.4" y1="332.5" x2="505.4" y2="123.7" stroke="#e09f3e" stroke-width="0.7" opacity="0.28"/>
<line x1="412.2" y1="285.2" x2="505.4" y2="123.7" stroke="#e09f3e" stroke-width="0.7" opacity="0.28"/>
<line x1="604.6" y1="396.3" x2="505.4" y2="123.7" stroke="#e09f3e" stroke-width="0.7" opacity="0.28"/>
<line x1="680.6" y1="187.5" x2="505.4" y2="123.7" stroke="#e09f3e" stroke-width="0.7" opacity="0.28"/>
<line x1="461.8" y1="371.1" x2="505.4" y2="123.7" stroke="#e09f3e" stroke-width="0.7" opacity="0.28"/>
<line x1="697.8" y1="285.2" x2="505.4" y2="123.7" stroke="#e09f3e" stroke-width="0.7" opacity="0.28"/>
<line x1="648.2" y1="148.9" x2="505.4" y2="123.7" stroke="#e09f3e" stroke-width="0.7" opacity="0.28"/>
<line x1="604.6" y1="123.7" x2="505.4" y2="123.7" stroke="#e09f3e" stroke-width="0.7" opacity="0.28"/>
<line x1="680.6" y1="332.5" x2="505.4" y2="123.7" stroke="#e09f3e" stroke-width="0.7" opacity="0.28"/>
<line x1="461.8" y1="148.9" x2="505.4" y2="123.7" stroke="#e09f3e" stroke-width="0.7" opacity="0.28"/>
<line x1="505.4" y1="396.3" x2="555.0" y2="405.0" stroke="#e09f3e" stroke-width="0.7" opacity="0.28"/>
<line x1="412.2" y1="234.8" x2="555.0" y2="405.0" stroke="#e09f3e" stroke-width="0.7" opacity="0.28"/>
<line x1="429.4" y1="332.5" x2="555.0" y2="405.0" stroke="#e09f3e" stroke-width="0.7" opacity="0.28"/>
<line x1="412.2" y1="285.2" x2="555.0" y2="405.0" stroke="#e09f3e" stroke-width="0.7" opacity="0.28"/>
<line x1="604.6" y1="396.3" x2="555.0" y2="405.0" stroke="#e09f3e" stroke-width="0.7" opacity="0.28"/>
<line x1="680.6" y1="187.5" x2="555.0" y2="405.0" stroke="#e09f3e" stroke-width="0.7" opacity="0.28"/>
<line x1="461.8" y1="371.1" x2="555.0" y2="405.0" stroke="#e09f3e" stroke-width="0.7" opacity="0.28"/>
<line x1="697.8" y1="285.2" x2="555.0" y2="405.0" stroke="#e09f3e" stroke-width="0.7" opacity="0.28"/>
<line x1="648.2" y1="148.9" x2="555.0" y2="405.0" stroke="#e09f3e" stroke-width="0.7" opacity="0.28"/>
<line x1="604.6" y1="123.7" x2="555.0" y2="405.0" stroke="#e09f3e" stroke-width="0.7" opacity="0.28"/>
<line x1="680.6" y1="332.5" x2="555.0" y2="405.0" stroke="#e09f3e" stroke-width="0.7" opacity="0.28"/>
<line x1="461.8" y1="148.9" x2="555.0" y2="405.0" stroke="#e09f3e" stroke-width="0.7" opacity="0.28"/>
<line x1="505.4" y1="123.7" x2="555.0" y2="405.0" stroke="#e09f3e" stroke-width="0.7" opacity="0.28"/>
<line x1="505.4" y1="396.3" x2="555.0" y2="115.0" stroke="#e09f3e" stroke-width="0.7" opacity="0.28"/>
<line x1="412.2" y1="234.8" x2="555.0" y2="115.0" stroke="#e09f3e" stroke-width="0.7" opacity="0.28"/>
<line x1="429.4" y1="332.5" x2="555.0" y2="115.0" stroke="#e09f3e" stroke-width="0.7" opacity="0.28"/>
<line x1="412.2" y1="285.2" x2="555.0" y2="115.0" stroke="#e09f3e" stroke-width="0.7" opacity="0.28"/>
<line x1="604.6" y1="396.3" x2="555.0" y2="115.0" stroke="#e09f3e" stroke-width="0.7" opacity="0.28"/>
<line x1="680.6" y1="187.5" x2="555.0" y2="115.0" stroke="#e09f3e" stroke-width="0.7" opacity="0.28"/>
<line x1="461.8" y1="371.1" x2="555.0" y2="115.0" stroke="#e09f3e" stroke-width="0.7" opacity="0.28"/>
<line x1="697.8" y1="285.2" x2="555.0" y2="115.0" stroke="#e09f3e" stroke-width="0.7" opacity="0.28"/>
<line x1="648.2" y1="148.9" x2="555.0" y2="115.0" stroke="#e09f3e" stroke-width="0.7" opacity="0.28"/>
<line x1="604.6" y1="123.7" x2="555.0" y2="115.0" stroke="#e09f3e" stroke-width="0.7" opacity="0.28"/>
<line x1="680.6" y1="332.5" x2="555.0" y2="115.0" stroke="#e09f3e" stroke-width="0.7" opacity="0.28"/>
<line x1="461.8" y1="148.9" x2="555.0" y2="115.0" stroke="#e09f3e" stroke-width="0.7" opacity="0.28"/>
<line x1="505.4" y1="123.7" x2="555.0" y2="115.0" stroke="#e09f3e" stroke-width="0.7" opacity="0.28"/>
<line x1="555.0" y1="405.0" x2="555.0" y2="115.0" stroke="#e09f3e" stroke-width="0.7" opacity="0.28"/>
<line x1="505.4" y1="396.3" x2="697.8" y2="234.8" stroke="#e09f3e" stroke-width="0.7" opacity="0.28"/>
<line x1="412.2" y1="234.8" x2="697.8" y2="234.8" stroke="#e09f3e" stroke-width="0.7" opacity="0.28"/>
<line x1="429.4" y1="332.5" x2="697.8" y2="234.8" stroke="#e09f3e" stroke-width="0.7" opacity="0.28"/>
<line x1="412.2" y1="285.2" x2="697.8" y2="234.8" stroke="#e09f3e" stroke-width="0.7" opacity="0.28"/>
<line x1="604.6" y1="396.3" x2="697.8" y2="234.8" stroke="#e09f3e" stroke-width="0.7" opacity="0.28"/>
<line x1="680.6" y1="187.5" x2="697.8" y2="234.8" stroke="#e09f3e" stroke-width="0.7" opacity="0.28"/>
<line x1="461.8" y1="371.1" x2="697.8" y2="234.8" stroke="#e09f3e" stroke-width="0.7" opacity="0.28"/>
<line x1="697.8" y1="285.2" x2="697.8" y2="234.8" stroke="#e09f3e" stroke-width="0.7" opacity="0.28"/>
<line x1="648.2" y1="148.9" x2="697.8" y2="234.8" stroke="#e09f3e" stroke-width="0.7" opacity="0.28"/>
<line x1="604.6" y1="123.7" x2="697.8" y2="234.8" stroke="#e09f3e" stroke-width="0.7" opacity="0.28"/>
<line x1="680.6" y1="332.5" x2="697.8" y2="234.8" stroke="#e09f3e" stroke-width="0.7" opacity="0.28"/>
<line x1="461.8" y1="148.9" x2="697.8" y2="234.8" stroke="#e09f3e" stroke-width="0.7" opacity="0.28"/>
<line x1="505.4" y1="123.7" x2="697.8" y2="234.8" stroke="#e09f3e" stroke-width="0.7" opacity="0.28"/>
<line x1="555.0" y1="405.0" x2="697.8" y2="234.8" stroke="#e09f3e" stroke-width="0.7" opacity="0.28"/>
<line x1="555.0" y1="115.0" x2="697.8" y2="234.8" stroke="#e09f3e" stroke-width="0.7" opacity="0.28"/>
<line x1="505.4" y1="396.3" x2="648.2" y2="371.1" stroke="#e09f3e" stroke-width="0.7" opacity="0.28"/>
<line x1="412.2" y1="234.8" x2="648.2" y2="371.1" stroke="#e09f3e" stroke-width="0.7" opacity="0.28"/>
<line x1="429.4" y1="332.5" x2="648.2" y2="371.1" stroke="#e09f3e" stroke-width="0.7" opacity="0.28"/>
<line x1="412.2" y1="285.2" x2="648.2" y2="371.1" stroke="#e09f3e" stroke-width="0.7" opacity="0.28"/>
<line x1="604.6" y1="396.3" x2="648.2" y2="371.1" stroke="#e09f3e" stroke-width="0.7" opacity="0.28"/>
<line x1="680.6" y1="187.5" x2="648.2" y2="371.1" stroke="#e09f3e" stroke-width="0.7" opacity="0.28"/>
<line x1="461.8" y1="371.1" x2="648.2" y2="371.1" stroke="#e09f3e" stroke-width="0.7" opacity="0.28"/>
<line x1="697.8" y1="285.2" x2="648.2" y2="371.1" stroke="#e09f3e" stroke-width="0.7" opacity="0.28"/>
<line x1="648.2" y1="148.9" x2="648.2" y2="371.1" stroke="#e09f3e" stroke-width="0.7" opacity="0.28"/>
<line x1="604.6" y1="123.7" x2="648.2" y2="371.1" stroke="#e09f3e" stroke-width="0.7" opacity="0.28"/>
<line x1="680.6" y1="332.5" x2="648.2" y2="371.1" stroke="#e09f3e" stroke-width="0.7" opacity="0.28"/>
<line x1="461.8" y1="148.9" x2="648.2" y2="371.1" stroke="#e09f3e" stroke-width="0.7" opacity="0.28"/>
<line x1="505.4" y1="123.7" x2="648.2" y2="371.1" stroke="#e09f3e" stroke-width="0.7" opacity="0.28"/>
<line x1="555.0" y1="405.0" x2="648.2" y2="371.1" stroke="#e09f3e" stroke-width="0.7" opacity="0.28"/>
<line x1="555.0" y1="115.0" x2="648.2" y2="371.1" stroke="#e09f3e" stroke-width="0.7" opacity="0.28"/>
<line x1="697.8" y1="234.8" x2="648.2" y2="371.1" stroke="#e09f3e" stroke-width="0.7" opacity="0.28"/>
<line x1="505.4" y1="396.3" x2="429.4" y2="187.5" stroke="#e09f3e" stroke-width="0.7" opacity="0.28"/>
<line x1="412.2" y1="234.8" x2="429.4" y2="187.5" stroke="#e09f3e" stroke-width="0.7" opacity="0.28"/>
<line x1="429.4" y1="332.5" x2="429.4" y2="187.5" stroke="#e09f3e" stroke-width="0.7" opacity="0.28"/>
<line x1="412.2" y1="285.2" x2="429.4" y2="187.5" stroke="#e09f3e" stroke-width="0.7" opacity="0.28"/>
<line x1="604.6" y1="396.3" x2="429.4" y2="187.5" stroke="#e09f3e" stroke-width="0.7" opacity="0.28"/>
<line x1="680.6" y1="187.5" x2="429.4" y2="187.5" stroke="#e09f3e" stroke-width="0.7" opacity="0.28"/>
<line x1="461.8" y1="371.1" x2="429.4" y2="187.5" stroke="#e09f3e" stroke-width="0.7" opacity="0.28"/>
<line x1="697.8" y1="285.2" x2="429.4" y2="187.5" stroke="#e09f3e" stroke-width="0.7" opacity="0.28"/>
<line x1="648.2" y1="148.9" x2="429.4" y2="187.5" stroke="#e09f3e" stroke-width="0.7" opacity="0.28"/>
<line x1="604.6" y1="123.7" x2="429.4" y2="187.5" stroke="#e09f3e" stroke-width="0.7" opacity="0.28"/>
<line x1="680.6" y1="332.5" x2="429.4" y2="187.5" stroke="#e09f3e" stroke-width="0.7" opacity="0.28"/>
<line x1="461.8" y1="148.9" x2="429.4" y2="187.5" stroke="#e09f3e" stroke-width="0.7" opacity="0.28"/>
<line x1="505.4" y1="123.7" x2="429.4" y2="187.5" stroke="#e09f3e" stroke-width="0.7" opacity="0.28"/>
<line x1="555.0" y1="405.0" x2="429.4" y2="187.5" stroke="#e09f3e" stroke-width="0.7" opacity="0.28"/>
<line x1="555.0" y1="115.0" x2="429.4" y2="187.5" stroke="#e09f3e" stroke-width="0.7" opacity="0.28"/>
<line x1="697.8" y1="234.8" x2="429.4" y2="187.5" stroke="#e09f3e" stroke-width="0.7" opacity="0.28"/>
<line x1="648.2" y1="371.1" x2="429.4" y2="187.5" stroke="#e09f3e" stroke-width="0.7" opacity="0.28"/>
<circle cx="555.0" cy="115.0" r="9" fill="#2f6f9f" stroke="white" stroke-width="1.4"/>
<text x="555.0" y="102.0" text-anchor="middle" class="node-label">0</text>
<circle cx="604.6" cy="123.7" r="9" fill="#2f6f9f" stroke="white" stroke-width="1.4"/>
<text x="610.1" y="111.7" text-anchor="middle" class="node-label">1</text>
<circle cx="648.2" cy="148.9" r="9" fill="#2f6f9f" stroke="white" stroke-width="1.4"/>
<text x="658.5" y="139.7" text-anchor="middle" class="node-label">2</text>
<circle cx="680.6" cy="187.5" r="9" fill="#2f6f9f" stroke="white" stroke-width="1.4"/>
<text x="694.4" y="182.5" text-anchor="middle" class="node-label">3</text>
<circle cx="697.8" cy="234.8" r="9" fill="#2f6f9f" stroke="white" stroke-width="1.4"/>
<text x="713.6" y="235.0" text-anchor="middle" class="node-label">4</text>
<circle cx="697.8" cy="285.2" r="9" fill="#2f6f9f" stroke="white" stroke-width="1.4"/>
<text x="713.6" y="291.0" text-anchor="middle" class="node-label">5</text>
<circle cx="680.6" cy="332.5" r="9" fill="#2f6f9f" stroke="white" stroke-width="1.4"/>
<text x="694.4" y="343.5" text-anchor="middle" class="node-label">6</text>
<circle cx="648.2" cy="371.1" r="9" fill="#2f6f9f" stroke="white" stroke-width="1.4"/>
<text x="658.5" y="386.3" text-anchor="middle" class="node-label">7</text>
<circle cx="604.6" cy="396.3" r="9" fill="#2f6f9f" stroke="white" stroke-width="1.4"/>
<text x="610.1" y="414.3" text-anchor="middle" class="node-label">8</text>
<circle cx="555.0" cy="405.0" r="9" fill="#2f6f9f" stroke="white" stroke-width="1.4"/>
<text x="555.0" y="424.0" text-anchor="middle" class="node-label">9</text>
<circle cx="505.4" cy="396.3" r="9" fill="#2f6f9f" stroke="white" stroke-width="1.4"/>
<text x="499.9" y="414.3" text-anchor="middle" class="node-label">10</text>
<circle cx="461.8" cy="371.1" r="9" fill="#2f6f9f" stroke="white" stroke-width="1.4"/>
<text x="451.5" y="386.3" text-anchor="middle" class="node-label">11</text>
<circle cx="429.4" cy="332.5" r="9" fill="#2f6f9f" stroke="white" stroke-width="1.4"/>
<text x="415.6" y="343.5" text-anchor="middle" class="node-label">12</text>
<circle cx="412.2" cy="285.2" r="9" fill="#2f6f9f" stroke="white" stroke-width="1.4"/>
<text x="396.4" y="291.0" text-anchor="middle" class="node-label">13</text>
<circle cx="412.2" cy="234.8" r="9" fill="#2f6f9f" stroke="white" stroke-width="1.4"/>
<text x="396.4" y="235.0" text-anchor="middle" class="node-label">14</text>
<circle cx="429.4" cy="187.5" r="9" fill="#2f6f9f" stroke="white" stroke-width="1.4"/>
<text x="415.6" y="182.5" text-anchor="middle" class="node-label">15</text>
<circle cx="461.8" cy="148.9" r="9" fill="#2f6f9f" stroke="white" stroke-width="1.4"/>
<text x="451.5" y="139.7" text-anchor="middle" class="node-label">16</text>
<circle cx="505.4" cy="123.7" r="9" fill="#2f6f9f" stroke="white" stroke-width="1.4"/>
<text x="499.9" y="111.7" text-anchor="middle" class="node-label">17</text>
<circle cx="509" cy="466" r="6" fill="#2f6f9f"/>
<text x="521.0" y="470.0" text-anchor="start" class="small">Satellite</text>
<line x1="577" y1="466" x2="604" y2="466" stroke="#e09f3e" stroke-width="2"/>
<text x="611.0" y="470.0" text-anchor="start" class="small">Candidate connection</text>
<text x="930.0" y="65.0" text-anchor="middle" class="label">After fine relative-dynamics screen</text>
<text x="930.0" y="88.0" text-anchor="middle" class="small">18 satellites · 2 edges</text>
<line x1="787.2" y1="285.2" x2="1023.2" y2="148.9" stroke="#b23a48" stroke-width="1.5" opacity="0.75"/>
<line x1="787.2" y1="285.2" x2="930.0" y2="405.0" stroke="#b23a48" stroke-width="1.5" opacity="0.75"/>
<circle cx="930.0" cy="115.0" r="9" fill="#2f6f9f" stroke="white" stroke-width="1.4"/>
<text x="930.0" y="102.0" text-anchor="middle" class="node-label">0</text>
<circle cx="979.6" cy="123.7" r="9" fill="#2f6f9f" stroke="white" stroke-width="1.4"/>
<text x="985.1" y="111.7" text-anchor="middle" class="node-label">1</text>
<circle cx="1023.2" cy="148.9" r="9" fill="#2f6f9f" stroke="white" stroke-width="1.4"/>
<text x="1033.5" y="139.7" text-anchor="middle" class="node-label">2</text>
<circle cx="1055.6" cy="187.5" r="9" fill="#2f6f9f" stroke="white" stroke-width="1.4"/>
<text x="1069.4" y="182.5" text-anchor="middle" class="node-label">3</text>
<circle cx="1072.8" cy="234.8" r="9" fill="#2f6f9f" stroke="white" stroke-width="1.4"/>
<text x="1088.6" y="235.0" text-anchor="middle" class="node-label">4</text>
<circle cx="1072.8" cy="285.2" r="9" fill="#2f6f9f" stroke="white" stroke-width="1.4"/>
<text x="1088.6" y="291.0" text-anchor="middle" class="node-label">5</text>
<circle cx="1055.6" cy="332.5" r="9" fill="#2f6f9f" stroke="white" stroke-width="1.4"/>
<text x="1069.4" y="343.5" text-anchor="middle" class="node-label">6</text>
<circle cx="1023.2" cy="371.1" r="9" fill="#2f6f9f" stroke="white" stroke-width="1.4"/>
<text x="1033.5" y="386.3" text-anchor="middle" class="node-label">7</text>
<circle cx="979.6" cy="396.3" r="9" fill="#2f6f9f" stroke="white" stroke-width="1.4"/>
<text x="985.1" y="414.3" text-anchor="middle" class="node-label">8</text>
<circle cx="930.0" cy="405.0" r="9" fill="#2f6f9f" stroke="white" stroke-width="1.4"/>
<text x="930.0" y="424.0" text-anchor="middle" class="node-label">9</text>
<circle cx="880.4" cy="396.3" r="9" fill="#2f6f9f" stroke="white" stroke-width="1.4"/>
<text x="874.9" y="414.3" text-anchor="middle" class="node-label">10</text>
<circle cx="836.8" cy="371.1" r="9" fill="#2f6f9f" stroke="white" stroke-width="1.4"/>
<text x="826.5" y="386.3" text-anchor="middle" class="node-label">11</text>
<circle cx="804.4" cy="332.5" r="9" fill="#2f6f9f" stroke="white" stroke-width="1.4"/>
<text x="790.6" y="343.5" text-anchor="middle" class="node-label">12</text>
<circle cx="787.2" cy="285.2" r="9" fill="#2f6f9f" stroke="white" stroke-width="1.4"/>
<text x="771.4" y="291.0" text-anchor="middle" class="node-label">13</text>
<circle cx="787.2" cy="234.8" r="9" fill="#2f6f9f" stroke="white" stroke-width="1.4"/>
<text x="771.4" y="235.0" text-anchor="middle" class="node-label">14</text>
<circle cx="804.4" cy="187.5" r="9" fill="#2f6f9f" stroke="white" stroke-width="1.4"/>
<text x="790.6" y="182.5" text-anchor="middle" class="node-label">15</text>
<circle cx="836.8" cy="148.9" r="9" fill="#2f6f9f" stroke="white" stroke-width="1.4"/>
<text x="826.5" y="139.7" text-anchor="middle" class="node-label">16</text>
<circle cx="880.4" cy="123.7" r="9" fill="#2f6f9f" stroke="white" stroke-width="1.4"/>
<text x="874.9" y="111.7" text-anchor="middle" class="node-label">17</text>
<circle cx="884" cy="466" r="6" fill="#2f6f9f"/>
<text x="896.0" y="470.0" text-anchor="start" class="small">Satellite</text>
<line x1="952" y1="466" x2="979" y2="466" stroke="#b23a48" stroke-width="2"/>
<text x="986.0" y="470.0" text-anchor="start" class="small">Candidate connection</text>
<text x="560.0" y="520.0" text-anchor="middle" class="small">18 satellites · 500 ± 3 km · 50 km regime margin · 300 km screen distance · topology only, not orbital geometry</text>
</svg>